<?xml version="1.0" encoding="UTF-8" standalone="no"?>
<!-- Created with Inkscape (http://www.inkscape.org/) -->

<svg
   xmlns:dc="http://purl.org/dc/elements/1.1/"
   xmlns:cc="http://creativecommons.org/ns#"
   xmlns:rdf="http://www.w3.org/1999/02/22-rdf-syntax-ns#"
   xmlns:svg="http://www.w3.org/2000/svg"
   xmlns="http://www.w3.org/2000/svg"
   xmlns:sodipodi="http://sodipodi.sourceforge.net/DTD/sodipodi-0.dtd"
   xmlns:inkscape="http://www.inkscape.org/namespaces/inkscape"
   id="svg2"
   version="1.1"
   inkscape:version="0.91 r13725"
   width="512"
   height="512"
   viewBox="0 0 512 512"
   sodipodi:docname="favicon.svg"
   inkscape:export-filename="/home/chris/repos/gizmo/web/dist/favicon.png"
   inkscape:export-xdpi="90"
   inkscape:export-ydpi="90">
  <metadata
     id="metadata8">
    <rdf:RDF>
      <cc:Work
         rdf:about="">
        <dc:format>image/svg+xml</dc:format>
        <dc:type
           rdf:resource="http://purl.org/dc/dcmitype/StillImage" />
        <dc:title></dc:title>
      </cc:Work>
    </rdf:RDF>
  </metadata>
  <defs
     id="defs6" />
  <sodipodi:namedview
     pagecolor="#ffffff"
     bordercolor="#666666"
     borderopacity="1"
     objecttolerance="10"
     gridtolerance="10"
     guidetolerance="10"
     inkscape:pageopacity="0"
     inkscape:pageshadow="2"
     inkscape:window-width="796"
     inkscape:window-height="480"
     id="namedview4"
     showgrid="false"
     inkscape:zoom="0.921875"
     inkscape:cx="237.45469"
     inkscape:cy="259.35227"
     inkscape:window-x="468"
     inkscape:window-y="380"
     inkscape:window-maximized="0"
     inkscape:current-layer="svg2"
     showguides="true"
     inkscape:guide-bbox="true"
     inkscape:snap-object-midpoints="true" />
  <g
     inkscape:groupmode="layer"
     id="layer1"
     inkscape:label="cogs"
     style="display:inline"
     sodipodi:insensitive="true">
    <g
       transform="translate(-6.128157,4.093573)"
       id="g4228">
      <path
         inkscape:connector-curvature="0"
         id="circle4152"
         d="m 183.59375,163.25391 -11.93359,31.72851 0.21289,0.002 -0.19532,0.49609 a 118.77966,118.77966 0 0 0 -30.26367,12.60351 l -0.43554,-0.18945 0.14843,-0.15234 -30.87109,-13.99805 -12.462891,12.84961 -12.84961,12.46094 13.996094,30.875 0.152344,-0.15039 0.232422,0.5332 0.117187,-0.11914 a 118.77966,118.77966 0 0 0 -12.605468,30.37891 l -0.460938,0.18164 -0.002,-0.21289 -31.728516,11.93164 0.275391,17.89843 -0.275391,17.89844 31.728516,11.93359 0.002,-0.21289 0.541016,0.21289 -0.002,-0.24414 a 118.77966,118.77966 0 0 0 12.582032,30.44141 l -0.212891,0.48633 -0.152344,-0.15039 -13.998047,30.87305 12.851563,12.46093 12.460931,12.85157 30.87305,-13.99805 -0.14844,-0.15235 0.52539,-0.22656 a 118.77966,118.77966 0 0 0 30.3125,12.59766 l 0.13672,0.34765 -0.21289,0.002 11.93164,31.72851 17.89844,-0.27539 17.89844,0.27539 11.93359,-31.72851 -0.21289,-0.002 0.16406,-0.41992 A 118.77966,118.77966 0 0 0 262,412.45898 l 0.27539,0.1211 -0.14844,0.15234 30.8711,13.99805 12.46289,-12.84961 12.84961,-12.46289 -13.9961,-30.87305 -0.15234,0.14844 -0.13672,-0.3125 a 118.77966,118.77966 0 0 0 12.68945,-30.59766 l 0.16407,-0.0645 0.002,0.21289 L 348.60938,328 l -0.2754,-17.89844 0.2754,-17.89844 -31.72852,-11.93359 -0.002,0.21289 -0.30664,-0.12109 a 118.77966,118.77966 0 0 0 -12.70118,-30.54688 l 0.0996,-0.22656 0.15039,0.15039 14,-30.87305 -12.85156,-12.46093 -12.46094,-12.85157 -30.875,13.99805 0.15039,0.15039 -0.37109,0.16211 A 118.77966,118.77966 0 0 0 231.2207,195.26562 l -0.11132,-0.28124 0.21289,-0.002 -11.93165,-31.72851 -17.89843,0.27539 -17.89844,-0.27539 z m 18.16992,86.77929 a 60.203388,60.203388 0 0 1 60.20313,60.20313 60.203388,60.203388 0 0 1 -60.20313,60.20508 60.203388,60.203388 0 0 1 -60.20508,-60.20508 60.203388,60.203388 0 0 1 60.20508,-60.20313 z"
         style="opacity:1;fill:#cb3837;fill-opacity:1;stroke:none;stroke-width:3;stroke-linecap:round;stroke-linejoin:round;stroke-opacity:1" />
      <path
         inkscape:connector-curvature="0"
         style="opacity:1;fill:#cb3837;fill-opacity:1;stroke:none;stroke-width:3;stroke-linecap:round;stroke-linejoin:round;stroke-opacity:1"
         d="m 301.25001,180.24704 21.00261,-0.69229 -0.0493,-0.12241 0.33045,-0.006 a 73.632668,73.632668 0 0 0 14.39773,14.34275 l -0.005,0.29439 -0.12251,-0.0487 -0.69347,21.00129 10.31582,4.08947 10.18495,4.40315 14.36251,-15.34032 -0.12236,-0.0513 0.25023,-0.2596 -0.0959,-0.0391 a 73.632668,73.632668 0 0 0 20.38906,0.0126 l 0.21338,0.22091 -0.12146,0.0516 14.36045,15.34108 10.18549,-4.40376 10.31615,-4.0883 -0.6923,-21.00262 -0.1224,0.0494 -0.006,-0.36036 -0.13935,0.0591 a 73.632668,73.632668 0 0 0 14.44965,-14.42759 l 0.32902,0.007 -0.0502,0.12284 21.00242,0.69301 4.08787,-10.31647 4.40428,-10.18542 -15.34098,-14.36094 -0.0522,0.12111 -0.25441,-0.24715 a 73.632668,73.632668 0 0 0 0.0239,-20.34918 l 0.16667,-0.16077 0.0516,0.12145 15.34103,-14.36045 -4.40376,-10.18549 -4.08831,-10.31616 -21.00261,0.69229 0.0493,0.122401 -0.2794,0.0056 a 73.632668,73.632668 0 0 0 -14.4477,-14.450833 l 0.004,-0.18645 0.12251,0.04872 0.69346,-21.001302 -10.3158,-4.08947 -10.18607,-4.402692 -14.36141,15.339865 0.12111,0.0522 -0.14655,0.152436 a 73.632668,73.632668 0 0 0 -20.53426,-0.0089 l -0.0759,-0.07865 0.12145,-0.05164 -14.36043,-15.341092 -10.1855,4.40377 -10.31616,4.088299 0.6923,21.002616 0.1224,-0.04935 0.003,0.204341 a 73.632668,73.632668 0 0 0 -14.48178,14.520855 l -0.15339,-0.003 0.0505,-0.121802 -21.00288,-0.694125 -4.08787,10.316463 -4.40428,10.18542 15.34144,14.36205 0.0505,-0.12181 0.18088,0.17407 a 73.632668,73.632668 0 0 0 0.0187,20.45208 l -0.13466,0.13048 -0.0516,-0.12146 -15.34109,14.36044 4.40375,10.1855 4.08832,10.31616 z m 45.38997,-30.99289 a 37.320666,37.320666 0 0 1 20.19771,-48.76159 37.320666,37.320666 0 0 1 48.76261,20.19747 37.320666,37.320666 0 0 1 -20.19836,48.76317 37.320666,37.320666 0 0 1 -48.76214,-20.19861 z"
         id="path4225" />
    </g>
  </g>
</svg>
